# xmcd
#
# Track frame offsets: 
#        183
#        23938
#        41045
#        63620
#        77713
#        100778
#        121560
#        141105
#        158348
#        177010
#        191353
#        206343
#        223258
#        241788
#        256183
#        275235
#        295703
#        313608
#
# Disc length: 4404 seconds
#
# Revision: 6
# Processed by: cddbd v1.5.2PL0 Copyright (c) Steve Scherf et al.
# Submitted via: ExactAudioCopy v1.3
#
DISCID=f6113212
DTITLE=Paul Personne - Master Serie Paul Personne (compil)
DYEAR=1988
DGENRE=Blues
TTITLE0=Comme un étranger
TTITLE1=J'veux pas descendre
TTITLE2=Pleure pas
TTITLE3=Ca va rouler
TTITLE4=T'retourne pas
TTITLE5=Solitude blues
TTITLE6=Barjo land
TTITLE7=J'prends l'bon côté
TTITLE8=La p'tite à côté d'moi
TTITLE9=M'laisse pas tout seul (avec moi)
TTITLE10=A bientôt
TTITLE11=J'veux pas attendre
TTITLE12=T'arrêtes pas d'me manquer
TTITLE13=Renvoie la balle
TTITLE14=Frankie et Johnny
TTITLE15=Fais-moi rester avec toi
TTITLE16=Faut qu'j'me laisse aller
TTITLE17=J'blues
EXTD=YEAR: 1988
EXTT0=
EXTT1=
EXTT2=
EXTT3=
EXTT4=
EXTT5=
EXTT6=
EXTT7=
EXTT8=
EXTT9=
EXTT10=
EXTT11=
EXTT12=
EXTT13=
EXTT14=
EXTT15=
EXTT16=
EXTT17=
PLAYORDER=
